PathFileType	4	(X/Y/Z)	pose_F01_0-96.trc
DataRate	CameraRate	NumFrames	NumMarkers	Units	OrigDataRate	OrigDataStartFrame	OrigNumFrames
30	30	12	21	m	30	82	96
Frame#	Time	CHip			RHip			RKnee			RAnkle			RBigToe			RSmallToe			RHeel			LHip			LKnee			LAnkle			LBigToe			LSmallToe			LHeel			Neck			Nose			RShoulder			RElbow			RWrist			LShoulder			LElbow			LWrist			
		X1	Y1	Z1	X2	Y2	Z2	X3	Y3	Z3	X4	Y4	Z4	X5	Y5	Z5	X6	Y6	Z6	X7	Y7	Z7	X8	Y8	Z8	X9	Y9	Z9	X10	Y10	Z10	X11	Y11	Z11	X12	Y12	Z12	X13	Y13	Z13	X14	Y14	Z14	X15	Y15	Z15	X16	Y16	Z16	X17	Y17	Z17	X18	Y18	Z18	X19	Y19	Z19	X20	Y20	Z20	X21	Y21	Z21	
82	2.7333333333333334	-0.21179650801564404	1.8261126425104093	-0.49698041801435433	-0.22888966711234557	1.8232903044317197	-0.44636292812846573																-0.19585460125889245	1.8276186993907515	-0.5453886924047131	-0.19121172189671748	1.691189386900647	-0.5087258169431936	-0.1954446253659922	1.5620583830257395	-0.480969539067843				-0.22366351854050942	1.5331542818951327	-0.5191768518546436	-0.1877060531459121	1.55205857183171	-0.4758665552060206	-0.1969511510572886	1.9810714884130387	-0.49968914265821457	-0.20687370679624167	2.036753653449805	-0.5642189248189273	-0.22679724987158906	1.979034201569173	-0.4400173390571843	-0.26523815993280475	1.9177196873854987	-0.5058690051220892	-0.20601083059633854	1.9274341979093998	-0.5905665580272362	-0.16565008969430176	1.9834384965152587	-0.5601385016944865	-0.17905229509058235	1.928175495460153	-0.6127962791456848	-0.23767012379806302	1.9266699551668356	-0.5301117056345647
83	2.7666666666666666	-0.2120469420663624	1.8245651148984072	-0.4967484736859779	-0.23112834942596336	1.8232025183537233	-0.44412664316466827																-0.1970949313657638	1.8274480223179805	-0.5483839079566132	-0.19248920848471218	1.6901886205870058	-0.5117812255598914	-0.19544642706409415	1.5620804761711906	-0.480971473294796				-0.22592274016757427	1.5315772998440729	-0.5163812984981315	-0.1877060531459121	1.55205857183171	-0.4758665552060206	-0.19501436203914804	1.981086689411365	-0.5018682066473835	-0.20679656539940974	2.0378263750420205	-0.5641294455030809	-0.22583710571334076	1.9801606789828843	-0.4373243889662876	-0.2663487542064977	1.9166730097158344	-0.5088723125998437	-0.20507083271962023	1.927336274650929	-0.5873682127785629	-0.163753332818639	1.9809820196107182	-0.5620297713588777	-0.17905229509058235	1.928175495460153	-0.6127962791456848	-0.23562759200162722	1.927011696596912	-0.5237661711531139
84	2.8	-0.211860514814798	1.8258421072301374	-0.4970092743169662	-0.22981534833961567	1.8227866323988213	-0.4409255090879811																-0.19691082557547163	1.8286761231082445	-0.5488051145293702	-0.1921722299007254	1.6910114431704983	-0.5120685552332216	-0.1954482287621961	1.5621025693166415	-0.480973407521749				-0.22801711195672977	1.5286239339655874	-0.5134272661216084	-0.1906573125429012	1.55169674341944	-0.4771153330005391	-0.1968818121234764	1.9796881036806329	-0.4993476589676571	-0.20873207053949297	2.0378021375419224	-0.5620005764641677	-0.22466882535887794	1.9799755687535014	-0.43361395358356725	-0.2661144380882331	1.9191186184735236	-0.5004488190848161	-0.2070097721097539	1.9283971973007719	-0.5851727710420421	-0.16453899110458525	1.9806877130492215	-0.5649296705183544	-0.17659229066716645	1.9226573068544037	-0.6232824767408986	-0.23593838421170257	1.9249807754759298	-0.5238913847768996
85	2.8333333333333335	-0.2117514578695429	1.8245100643831416	-0.49683747568031467	-0.23064569102822347	1.8216702206404622	-0.44397006185965215																-0.19684286565313686	1.8274931524924258	-0.5485357909789853	-0.19093781819307676	1.6895732979597133	-0.5087383257702488	-0.19545003046029807	1.5621246624620924	-0.480975341748702				-0.22777127589555599	1.5305138961499865	-0.5140697382628414	-0.1906573125429012	1.55169674341944	-0.4771153330005391	-0.19680545391221527	1.9785253806514078	-0.49898580143095655	-0.2087404683376061	2.0378238051293946	-0.5619951765479652	-0.2228447968174265	1.9800628681727068	-0.4357525753356011	-0.2680618517446025	1.9177807097418718	-0.5066420401954601	-0.2048551724602227	1.9302419822562304	-0.5874665348212198	-0.16453126309911664	1.9809535301319443	-0.5649001120161395	-0.17715883543368258	1.9266569937344151	-0.6262064261398936	-0.23971171369487143	1.9272295178795795	-0.5282337958912485
86	2.8666666666666667	-0.21163050436220002	1.8237347579199739	-0.49661676341994015	-0.22955560399643843	1.820834617097761	-0.4406021515269987																-0.19689728213070312	1.8255142219437122	-0.5481300554307726	-0.19023310536842064	1.6883369743053482	-0.50521538975204	-0.19545183215840004	1.5621467556075435	-0.480977275975655				-0.22752166836538604	1.5292582041064735	-0.5140268431502509	-0.1906573125429012	1.55169674341944	-0.4771153330005391	-0.19480107268042474	1.979747541865065	-0.5011491579835802	-0.20874056310879868	2.0366270196068528	-0.5615154588854848	-0.22281110805554172	1.9800749027372972	-0.43577104027145996	-0.26811889270709804	1.9178321300940464	-0.5066774270355229	-0.20624229532134497	1.9301906643804285	-0.5821514365624194	-1.7608214136357596	1.889786624664463	1.1946611926771908	-0.17823971364094165	1.923186949241118	-0.6293847102018674	-0.235984193777943	1.9250978026160097	-0.5239566078796802
87	2.9	-0.21386530448954794	1.8231499427116629	-0.4943532355778907	-0.2297050504957544	1.8215598850032877	-0.44060746243526433																-0.19903081486734112	1.8264864189839	-0.546131895546485	-0.19004551708991	1.6897679566899881	-0.505595319744378	-0.195453633856502	1.5621688487529943	-0.48097921020260803				-0.22481224401885438	1.5306805090860114	-0.5129951740256262	-0.1906573125429012	1.55169674341944	-0.4771153330005391	-0.19682976290143284	1.9784429554873844	-0.4990084580101196	-0.21069820489219873	2.0390894736413374	-0.5596671411598679	-0.2228073398579652	1.9800341577866274	-0.435645110817939	-0.26714251300940983	1.917646491403007	-0.5032560575895751	-0.2099472641035167	1.9299614887601968	-0.5860816893881265	-1.7604457001454643	1.8897568450134885	1.1940027324312554	-0.1804705106315425	1.9190616702160406	-0.6271307223569963	-0.23580769436497503	1.9230102149044552	-0.5232633360018331
88	2.933333333333333	-0.2115970986408054	1.8207199872645285	-0.49618928355711517	-0.22933437134121623	1.818607852430838	-0.4403519853707572																-0.19674375641264444	1.8240512561382973	-0.5479646231185232	-0.1900819364862035	1.6875515326972366	-0.5050631547057116	-0.19545543555460396	1.5621909418984452	-0.480981144429561				-0.22569294415899147	1.5309175866833302	-0.5159340322751799	-0.1906573125429012	1.55169674341944	-0.4771153330005391	-0.1947869871356613	1.9797708295530678	-0.5011001563783397	-0.2107111652617513	2.039246613428286	-0.5596071557734973	-0.22275015750038626	1.9800532638999322	-0.43568193645569564	-0.26519263383061975	1.9186620148716282	-0.4971349108810423	-0.21365692476044426	1.9251090646627893	-0.5780989449307207	-1.7600040494765643	1.8897939356114912	1.1936769386451493	-0.17740802193318797	1.9220421589944898	-0.6260715493541088	-0.23099676244523312	1.9203467052021013	-0.5243414232341643
89	2.966666666666667	-0.211830358274884	1.822651631913747	-0.4964268494344993	-0.2297165942321281	1.8194266393809981	-0.44036338073512776																-0.19695793985348928	1.8257446785566152	-0.5482089224417974	-0.18819511244376422	1.6881645151647822	-0.5071946380580983	-0.19545723725270592	1.562213035043896	-0.480983078656514				-0.22591717921609186	1.531164155602299	-0.5164079725414918	-0.1906573125429012	1.55169674341944	-0.4771153330005391	-0.1947853191132867	1.9796364243085298	-0.5013041275015938	-0.2115039582689544	2.040767943157294	-0.5624660961390276	-0.22273476083611438	1.980008737559683	-0.4357431247356885	-0.26602683907759805	1.9183575838178066	-0.5001659404658382	-0.2090880410068857	1.9296736774599117	-0.5829069066965518	-1.7508907332378085	1.8896803154968491	1.1767401346134458	-0.17756257512080134	1.9178215771357565	-0.6261831867702088	-0.23410261378102745	1.920799373601494	-0.5257379385508749
90	3.0	-0.21174795805077365	1.8254044638383697	-0.49684989145981084	-0.22960292183899184	1.8245916058083167	-0.4411206475739956																-0.19686005003255982	1.8284078571981042	-0.5486461833185646	-0.19017403411602402	1.6907408488816658	-0.5052970167669365	-0.19545903895080788	1.562235128189347	-0.48098501288346707				-0.22751760518278474	1.529286614465988	-0.5140340690842439	-0.1906573125429012	1.55169674341944	-0.4771153330005391	-0.19476904860755087	1.9798711424814137	-0.5013777225742557	-0.2134690261648458	2.0412222252493053	-0.5604320010210274	-0.2226027898266145	1.9813148664351399	-0.43590674196139867	-0.266159919709134	1.9181137965322934	-0.5087143527942121	-0.2101770581759925	1.9321067867508852	-0.57762960516926	-1.7500179286620783	1.8896937387337078	1.1756799983328312	-0.1775191971364445	1.9197270252269785	-0.6261068719284055	-0.23291862701961752	1.9223444713785065	-0.5225631705711254
91	3.033333333333333	-0.21061123363261763	1.8228662850065918	-0.4932901391620541	-0.22827671537520544	1.8211480559591076	-0.43747129681679264																-0.19790407824203093	1.8246020774887701	-0.5426969435749194	-0.18988185575934222	1.6890536447138416	-0.5052667688392235	-0.19546084064890984	1.562257221334798	-0.48098694711042006				-0.22887172674237827	1.527998232439646	-0.5079975468557401	-0.1906573125429012	1.55169674341944	-0.4771153330005391	-0.19484222291473402	1.9810196603895784	-0.5017192869130596	-0.2135843637704677	2.0412305407822617	-0.5602518268211423	-0.22087266061452346	1.9801965238836101	-0.4380211289910597	-0.2672579724210993	1.9169287269843713	-0.5032356401885506	-0.21523396380031667	1.9293808460345303	-0.5760524888390327	-1.7503040854387693	1.8897028333501644	1.176192679680033	-0.1788247946850522	1.91760639268586	-0.6201385238357797	-0.23597797704687784	1.9222045885354584	-0.5234705746955851
92	3.066666666666667	-0.21093829045043455	1.8264029087552396	-0.49382805401406854	-0.22688242158388533	1.823282019409852	-0.4398562499168614																-0.1961673830485878	1.8268792416816453	-0.5452575718653074	-0.1908436674799274	1.6927524458539212	-0.5046539273937692	-0.1954626423470118	1.562279314480249	-0.48098888133737305				-0.22620128175085658	1.532716341882682	-0.5158771391480445	-0.1906573125429012	1.55169674341944	-0.4771153330005391	-0.19495204315354372	1.982422461621112	-0.5021630461819843	-0.2154349696066614	2.0426436745823966	-0.5580675080905027	-0.22275969653875285	1.9813277968439587	-0.4363060856655473	-0.2634006805686966	1.9167034414500472	-0.49051566246346145	-0.21519454545123198	1.9300509988649972	-0.5760293277972247	-0.16819264537688547	1.9824815477918047	-0.5691312875780477	-0.18552772793880815	1.9146426328845154	-0.6139682213497794	-0.237945311362274	1.9229681787030755	-0.5126788364237137
93	3.1	-0.21136091056781342	1.8252774751410343	-0.49351432425124137	-0.22723515308064848	1.824655773118934	-0.4398751807622981																-0.19647441931995135	1.8270204563110048	-0.5452027265312157	-0.19101236394618443	1.6936239897603638	-0.5044712721096521	-0.19544790168428372	1.5619325549112166	-0.48096055207301136				-0.22785716341307477	1.5305863398270572	-0.5140351170233365	-0.1906573125429012	1.55169674341944	-0.4771153330005391	-0.1958202398719448	1.981217785016701	-0.5047384054052436	-0.21757808016547212	2.0423630961926205	-0.5557590732823904	-0.22268086695703163	1.980056171842965	-0.4358406703456607	-0.26528471427084394	1.915735206843412	-0.4880606116303755	-0.21929017652801594	1.9274663325175982	-0.5710532553524299	-1.7403666767589414	1.8896931775151677	1.1582535889146899	-0.18765678736628008	1.9130633837508548	-0.6112586861072258	-0.23761353377160785	1.9223447624618417	-0.512080957915016
